<svg width="24" height="28" viewBox="0 0 24 28" fill="none" xmlns="http://www.w3.org/2000/svg">
<path d="M2.76667 14.6667H6.66667C6.91111 14.6667 7.14444 14.7276 7.36667 14.8493C7.58889 14.972 7.75556 15.1556 7.86667 15.4L9.33333 18.3333L13.4667 10.0667C13.7111 9.55556 14.1111 9.3 14.6667 9.3C15.2222 9.3 15.6222 9.55556 15.8667 10.0667L18.1667 14.6667H21.2333C20.9 12.4 19.8667 10.5 18.1333 8.96667C16.4 7.43333 14.3556 6.66667 12 6.66667C9.64444 6.66667 7.6 7.43333 5.86667 8.96667C4.13333 10.5 3.1 12.4 2.76667 14.6667ZM12 25.3333C14.3556 25.3333 16.4 24.5667 18.1333 23.0333C19.8667 21.5 20.9 19.6 21.2333 17.3333H17.3333C17.0889 17.3333 16.8556 17.2724 16.6333 17.1507C16.4111 17.028 16.2444 16.8444 16.1333 16.6L14.6667 13.6667L10.5333 21.9333C10.2889 22.4444 9.88889 22.7 9.33333 22.7C8.77778 22.7 8.37778 22.4444 8.13333 21.9333L5.83333 17.3333H2.76667C3.1 19.6 4.13333 21.5 5.86667 23.0333C7.6 24.5667 9.64444 25.3333 12 25.3333ZM12 28C10.3556 28 8.80533 27.6836 7.34933 27.0507C5.89422 26.4169 4.62222 25.5556 3.53333 24.4667C2.44444 23.3778 1.58311 22.1058 0.949333 20.6507C0.316444 19.1947 0 17.6444 0 16H2.66667C2.66667 18.5778 3.57778 20.7778 5.4 22.6C7.22222 24.4222 9.42222 25.3333 12 25.3333C14.5778 25.3333 16.7778 24.4222 18.6 22.6C20.4222 20.7778 21.3333 18.5778 21.3333 16H24C24 17.6444 23.6836 19.1947 23.0507 20.6507C22.4169 22.1058 21.5556 23.3778 20.4667 24.4667C19.3778 25.5556 18.1058 26.4169 16.6507 27.0507C15.1947 27.6836 13.6444 28 12 28ZM0 16C0 14.3556 0.316444 12.8053 0.949333 11.3493C1.58311 9.89422 2.44444 8.62222 3.53333 7.53333C4.62222 6.44444 5.89422 5.58356 7.34933 4.95067C8.80533 4.31689 10.3556 4 12 4C13.3778 4 14.7 4.22222 15.9667 4.66667C17.2333 5.11111 18.4222 5.75556 19.5333 6.6L20.4667 5.66667C20.7111 5.42222 21.0222 5.3 21.4 5.3C21.7778 5.3 22.0889 5.42222 22.3333 5.66667C22.5778 5.91111 22.7 6.22222 22.7 6.6C22.7 6.97778 22.5778 7.28889 22.3333 7.53333L21.4 8.46667C22.2444 9.57778 22.8889 10.7667 23.3333 12.0333C23.7778 13.3 24 14.6222 24 16H21.3333C21.3333 13.4222 20.4222 11.2222 18.6 9.4C16.7778 7.57778 14.5778 6.66667 12 6.66667C9.42222 6.66667 7.22222 7.57778 5.4 9.4C3.57778 11.2222 2.66667 13.4222 2.66667 16H0ZM9.33333 2.66667C8.95556 2.66667 8.63911 2.53867 8.384 2.28267C8.128 2.02756 8 1.71111 8 1.33333C8 0.955556 8.128 0.638667 8.384 0.382667C8.63911 0.127555 8.95556 0 9.33333 0H14.6667C15.0444 0 15.3613 0.127555 15.6173 0.382667C15.8724 0.638667 16 0.955556 16 1.33333C16 1.71111 15.8724 2.02756 15.6173 2.28267C15.3613 2.53867 15.0444 2.66667 14.6667 2.66667H9.33333ZM12 25.3333C9.42222 25.3333 7.22222 24.4222 5.4 22.6C3.57778 20.7778 2.66667 18.5778 2.66667 16C2.66667 13.4222 3.57778 11.2222 5.4 9.4C7.22222 7.57778 9.42222 6.66667 12 6.66667C14.5778 6.66667 16.7778 7.57778 18.6 9.4C20.4222 11.2222 21.3333 13.4222 21.3333 16C21.3333 18.5778 20.4222 20.7778 18.6 22.6C16.7778 24.4222 14.5778 25.3333 12 25.3333Z" fill="#6048F2"/>
</svg>
