<svg width="32" height="25" viewBox="0 0 32 25" fill="none" xmlns="http://www.w3.org/2000/svg">
<path d="M16.0004 24.75C8.78039 24.75 2.90039 18.87 2.90039 11.65V1.5H5.90039V11.65C5.90039 17.22 10.4304 21.75 16.0004 21.75C21.5704 21.75 26.1004 17.22 26.1004 11.65V1.5H29.1004V11.65C29.1004 18.87 23.2204 24.75 16.0004 24.75Z" fill="#6048F2"/>
<path d="M30.5 3H1.5C0.67 3 0 2.33 0 1.5C0 0.67 0.67 0 1.5 0H30.5C31.33 0 32 0.67 32 1.5C32 2.33 31.33 3 30.5 3Z" fill="#6048F2"/>
<path d="M16.0004 17.5C14.4404 17.5 12.9704 16.89 11.8604 15.79C10.7604 14.69 10.1504 13.22 10.1504 11.65C10.1504 10.08 10.7604 8.62005 11.8604 7.51005C12.9604 6.41005 14.4304 5.80005 16.0004 5.80005C17.5704 5.80005 19.0304 6.41005 20.1404 7.51005C21.2504 8.61005 21.8504 10.08 21.8504 11.65C21.8504 13.22 21.2404 14.68 20.1404 15.79C19.0404 16.89 17.5704 17.5 16.0004 17.5ZM16.0004 8.80005C15.2404 8.80005 14.5204 9.10005 13.9804 9.63005C13.4404 10.17 13.1504 10.88 13.1504 11.65C13.1504 12.42 13.4504 13.13 13.9804 13.67C15.0604 14.75 16.9404 14.75 18.0104 13.67C18.5504 13.13 18.8504 12.42 18.8504 11.65C18.8504 10.88 18.5504 10.17 18.0204 9.64005C17.4804 9.10005 16.7704 8.81005 16.0004 8.81005V8.80005Z" fill="#6048F2"/>
</svg>
