<svg width="23" height="20" viewBox="0 0 23 20" fill="none" xmlns="http://www.w3.org/2000/svg">
<path d="M21.3915 4.74629L12.4292 0.220398C12.14 0.0753926 11.8221 0 11.5 0C11.1779 0 10.86 0.0753926 10.5708 0.220398L1.60846 4.74629C1.12587 4.98561 0.719017 5.35906 0.434535 5.82385C0.150053 6.28864 -0.000545713 6.82595 1.48589e-06 7.3742V17.0614C1.48589e-06 18.6818 1.30505 20 2.9094 20H20.0906C21.695 20 23 18.6818 23 17.0614V7.3742C23.0005 6.82595 22.8499 6.28864 22.5655 5.82385C22.281 5.35906 21.8741 4.98561 21.3915 4.74629ZM11.3142 1.72221C11.372 1.69321 11.4356 1.67813 11.5 1.67813C11.5644 1.67813 11.628 1.69321 11.6858 1.72221L20.3817 6.11219L11.5513 10.5725C11.4935 10.6015 11.4299 10.6166 11.3655 10.6166C11.3011 10.6166 11.2375 10.6015 11.1796 10.5725L2.48226 6.18199L11.3142 1.72221Z" fill="white"/>
</svg>
