<svg width="15" height="23" viewBox="0 0 15 23" fill="none" xmlns="http://www.w3.org/2000/svg">
<path d="M5.35714 19.8636H9.64286V18.8182H5.35714V19.8636ZM2.14286 23C1.55357 23 1.04929 22.7954 0.63 22.3863C0.21 21.9765 0 21.4841 0 20.9091V2.09091C0 1.51591 0.21 1.0235 0.63 0.613682C1.04929 0.204561 1.55357 0 2.14286 0H12.8571C13.4464 0 13.9511 0.204561 14.3711 0.613682C14.7904 1.0235 15 1.51591 15 2.09091V20.9091C15 21.4841 14.7904 21.9765 14.3711 22.3863C13.9511 22.7954 13.4464 23 12.8571 23H2.14286ZM2.14286 15.6818H12.8571V5.22727H2.14286V15.6818Z" fill="white"/>
</svg>
