<svg width="9" height="17" viewBox="0 0 9 17" fill="none" xmlns="http://www.w3.org/2000/svg">
<path d="M1.78341 0.336412L8.77189 7.87203C8.85484 7.96174 8.91346 8.05893 8.94774 8.16359C8.98258 8.26825 9 8.38039 9 8.5C9 8.61961 8.98258 8.73175 8.94774 8.83641C8.91346 8.94107 8.85484 9.03826 8.77189 9.12797L1.78341 16.686C1.58986 16.8953 1.34793 17 1.0576 17C0.767282 17 0.518434 16.8879 0.31106 16.6636C0.103687 16.4393 7.18912e-08 16.1777 9.80335e-08 15.8786C1.24176e-07 15.5796 0.103687 15.3179 0.31106 15.0937L6.40783 8.5L0.311061 1.90633C0.117513 1.69701 0.020739 1.43924 0.020739 1.13303C0.0207391 0.826226 0.124425 0.560685 0.331799 0.336412C0.539172 0.112136 0.781107 -7.18519e-07 1.05761 -6.94346e-07C1.3341 -6.70174e-07 1.57604 0.112136 1.78341 0.336412Z" fill="#6048F2"/>
</svg>
