<svg width="31" height="31" viewBox="0 0 31 31" fill="none" xmlns="http://www.w3.org/2000/svg">
<path d="M22.9221 11.1034C23.1393 11.3327 23.2565 11.6389 23.2481 11.9547C23.2397 12.2704 23.1064 12.57 22.8774 12.7875L14.1438 21.1336C13.918 21.346 13.6191 21.4635 13.3091 21.4615C13.0037 21.4627 12.7098 21.3451 12.4894 21.1336L8.1226 16.9606C8.00148 16.8549 7.90298 16.7258 7.83301 16.5811C7.76305 16.4364 7.72307 16.279 7.71547 16.1185C7.70787 15.9579 7.73282 15.7975 7.78881 15.6468C7.8448 15.4962 7.93068 15.3584 8.04128 15.2417C8.15188 15.1251 8.28492 15.032 8.43241 14.9681C8.5799 14.9042 8.73878 14.8708 8.89952 14.8699C9.06025 14.8689 9.21952 14.9005 9.36774 14.9627C9.51596 15.0249 9.65007 15.1164 9.76202 15.2317L13.3091 18.6149L21.238 11.0587C21.4674 10.8415 21.7735 10.7243 22.0893 10.7326C22.4051 10.741 22.7046 10.8744 22.9221 11.1034ZM31 15.5C31 18.5656 30.0909 21.5624 28.3878 24.1113C26.6846 26.6603 24.2638 28.647 21.4316 29.8201C18.5993 30.9933 15.4828 31.3002 12.4761 30.7022C9.4694 30.1041 6.70756 28.6279 4.53985 26.4601C2.37214 24.2924 0.895906 21.5306 0.297835 18.5239C-0.300236 15.5172 0.00671589 12.4007 1.17987 9.5684C2.35303 6.73615 4.33971 4.31538 6.88867 2.61222C9.43763 0.909059 12.4344 0 15.5 0C19.6084 0.00787813 23.5463 1.64344 26.4515 4.54855C29.3566 7.45365 30.9921 11.3916 31 15.5ZM28.6154 15.5C28.6154 12.906 27.8462 10.3703 26.405 8.21348C24.9639 6.05667 22.9156 4.37564 20.519 3.38296C18.1225 2.39029 15.4855 2.13056 12.9413 2.63662C10.3972 3.14268 8.06025 4.3918 6.22603 6.22602C4.39181 8.06024 3.14269 10.3972 2.63663 12.9413C2.13057 15.4854 2.3903 18.1225 3.38297 20.519C4.37564 22.9156 6.05667 24.9639 8.21349 26.405C10.3703 27.8462 12.906 28.6154 15.5 28.6154C18.9772 28.6114 22.3109 27.2284 24.7696 24.7696C27.2284 22.3109 28.6114 18.9772 28.6154 15.5Z" fill="#6048F2"/>
</svg>
