<svg width="9" height="17" viewBox="0 0 9 17" fill="none" xmlns="http://www.w3.org/2000/svg">
<path d="M7.21659 0.336412L0.228109 7.87203C0.14516 7.96174 0.0865428 8.05893 0.0522571 8.16359C0.0174184 8.26825 -7.5355e-07 8.38039 -7.43094e-07 8.5C-7.32637e-07 8.61961 0.0174184 8.73175 0.0522571 8.83641C0.0865428 8.94107 0.14516 9.03826 0.22811 9.12797L7.21659 16.686C7.41014 16.8953 7.65207 17 7.9424 17C8.23272 17 8.48157 16.8879 8.68894 16.6636C8.89631 16.4393 9 16.1777 9 15.8786C9 15.5796 8.89631 15.3179 8.68894 15.0937L2.59217 8.5L8.68894 1.90633C8.88249 1.69701 8.97926 1.43924 8.97926 1.13303C8.97926 0.826226 8.87557 0.560685 8.6682 0.336412C8.46083 0.112136 8.21889 -7.18519e-07 7.94239 -6.94346e-07C7.6659 -6.70174e-07 7.42396 0.112136 7.21659 0.336412Z" fill="#232323" fill-opacity="0.5"/>
</svg>
