<svg width="251" height="38" viewBox="0 0 251 38" fill="none" xmlns="http://www.w3.org/2000/svg">
<path d="M38 19C38 29.4934 29.4934 38 19 38C8.50659 38 0 29.4934 0 19C0 8.50659 8.50659 0 19 0C29.4934 0 38 8.50659 38 19ZM8.31999 19C8.31999 24.8984 13.1016 29.68 19 29.68C24.8984 29.68 29.68 24.8984 29.68 19C29.68 13.1016 24.8984 8.31999 19 8.31999C13.1016 8.31999 8.31999 13.1016 8.31999 19Z" fill="#8A77FF"/>
<path d="M18.9986 11.2593C18.2234 11.2593 17.4561 11.3747 16.7167 11.6025L14.9354 12.1499L16.6341 12.9164C17.643 13.3716 18.2949 14.378 18.2949 15.4815C18.2949 17.0335 17.032 18.2964 15.4801 18.2964C14.3766 18.2964 13.3702 17.6445 12.915 16.6356L12.1484 14.9369L11.601 16.7181C11.3733 17.4576 11.2578 18.2249 11.2578 19.0001C11.2578 23.2686 14.73 26.7408 18.9986 26.7408C23.2671 26.7408 26.7393 23.2686 26.7393 19.0001C26.7393 14.7315 23.2672 11.2593 18.9986 11.2593Z" fill="#8A77FF"/>
<path d="M53 26.7V12.3H55.72V18.14H58.12V20.86H55.72V26.7H53ZM63.96 27C63.0067 27 62.15 26.83 61.39 26.49C60.63 26.15 59.9833 25.6567 59.45 25.01C58.9167 24.3567 58.5067 23.5667 58.22 22.64C57.94 21.7133 57.8 20.6667 57.8 19.5C57.8 18.3267 57.94 17.28 58.22 16.36C58.5067 15.4333 58.9167 14.6467 59.45 14C59.9833 13.3467 60.63 12.85 61.39 12.51C62.15 12.17 63.0067 12 63.96 12C64.9133 12 65.77 12.17 66.53 12.51C67.29 12.85 67.9367 13.3467 68.47 14C69.0033 14.6467 69.41 15.4333 69.69 16.36C69.9767 17.28 70.12 18.3267 70.12 19.5C70.12 20.6667 69.9767 21.7133 69.69 22.64C69.41 23.5667 69.0033 24.3567 68.47 25.01C67.9367 25.6567 67.29 26.15 66.53 26.49C65.77 26.83 64.9133 27 63.96 27ZM63.96 24.44C64.52 24.44 65.0067 24.3233 65.42 24.09C65.8333 23.85 66.1733 23.5133 66.44 23.08C66.7067 22.64 66.9067 22.1167 67.04 21.51C67.1733 20.9033 67.24 20.2333 67.24 19.5C67.24 18.7667 67.1733 18.0967 67.04 17.49C66.9067 16.8833 66.7067 16.3633 66.44 15.93C66.1733 15.49 65.8333 15.1533 65.42 14.92C65.0067 14.68 64.52 14.56 63.96 14.56C63.4 14.56 62.9133 14.68 62.5 14.92C62.0867 15.1533 61.7467 15.49 61.48 15.93C61.2133 16.3633 61.0133 16.8833 60.88 17.49C60.7467 18.0967 60.68 18.7667 60.68 19.5C60.68 20.2333 60.7467 20.9033 60.88 21.51C61.0133 22.1167 61.2133 22.64 61.48 23.08C61.7467 23.5133 62.0867 23.85 62.5 24.09C62.9133 24.3233 63.4 24.44 63.96 24.44Z" fill="#8A77FF"/>
<path d="M72.1211 26.7V12.3H81.5211V14.84H74.8411V26.7H72.1211Z" fill="#8A77FF"/>
<path d="M86.5156 26.7V12.3H96.3956V14.84H89.2356V17.58H92.5956C92.729 17.58 92.9156 17.5867 93.1556 17.6C93.3956 17.6067 93.609 17.62 93.7956 17.64C94.6223 17.7267 95.309 17.9833 95.8556 18.41C96.409 18.83 96.8223 19.3667 97.0956 20.02C97.3756 20.6667 97.5156 21.3733 97.5156 22.14C97.5156 22.9067 97.379 23.6167 97.1056 24.27C96.8323 24.9167 96.419 25.4533 95.8656 25.88C95.319 26.3 94.629 26.5533 93.7956 26.64C93.609 26.66 93.3956 26.6767 93.1556 26.69C92.9223 26.6967 92.7356 26.7 92.5956 26.7H86.5156ZM89.2356 24.16H92.4756C92.6156 24.16 92.769 24.1533 92.9356 24.14C93.1023 24.1267 93.2556 24.1067 93.3956 24.08C93.949 23.96 94.3156 23.7033 94.4956 23.31C94.6823 22.9167 94.7756 22.5267 94.7756 22.14C94.7756 21.7467 94.6823 21.3567 94.4956 20.97C94.3156 20.5767 93.949 20.32 93.3956 20.2C93.2556 20.1667 93.1023 20.1467 92.9356 20.14C92.769 20.1267 92.6156 20.12 92.4756 20.12H89.2356V24.16Z" fill="#8A77FF"/>
<path d="M99.5234 26.7V12.3H108.923V14.84H102.243V17.92H107.723V20.46H102.243V24.16H108.923V26.7H99.5234Z" fill="#8A77FF"/>
<path d="M115.975 27C114.955 27 114.058 26.85 113.285 26.55C112.518 26.25 111.872 25.8667 111.345 25.4C110.818 24.9267 110.408 24.4333 110.115 23.92L112.415 22.32C112.575 22.6533 112.802 22.9833 113.095 23.31C113.388 23.6367 113.778 23.9067 114.265 24.12C114.752 24.3333 115.362 24.44 116.095 24.44C116.788 24.44 117.345 24.34 117.765 24.14C118.192 23.94 118.498 23.6833 118.685 23.37C118.878 23.0567 118.975 22.7267 118.975 22.38C118.975 21.92 118.838 21.5667 118.565 21.32C118.298 21.0733 117.952 20.9033 117.525 20.81C117.098 20.71 116.648 20.6533 116.175 20.64C115.715 20.6267 115.382 20.6167 115.175 20.61C114.975 20.6033 114.838 20.6 114.765 20.6C114.698 20.6 114.635 20.6 114.575 20.6V18.04C114.662 18.04 114.788 18.04 114.955 18.04C115.128 18.04 115.302 18.04 115.475 18.04C115.655 18.0333 115.802 18.0267 115.915 18.02C116.615 17.9867 117.198 17.8333 117.665 17.56C118.138 17.2867 118.375 16.86 118.375 16.28C118.375 15.7467 118.165 15.3233 117.745 15.01C117.332 14.6967 116.775 14.54 116.075 14.54C115.415 14.54 114.825 14.6833 114.305 14.97C113.792 15.25 113.415 15.56 113.175 15.9L111.315 13.9C111.815 13.38 112.485 12.9333 113.325 12.56C114.165 12.1867 115.108 12 116.155 12C116.788 12 117.408 12.0833 118.015 12.25C118.622 12.41 119.168 12.66 119.655 13C120.142 13.3333 120.528 13.7633 120.815 14.29C121.108 14.8167 121.255 15.4467 121.255 16.18C121.255 16.8 121.145 17.3867 120.925 17.94C120.705 18.4867 120.388 18.9467 119.975 19.32C120.575 19.5867 121.038 19.9733 121.365 20.48C121.692 20.9867 121.855 21.62 121.855 22.38C121.855 23.3333 121.588 24.1567 121.055 24.85C120.528 25.5367 119.818 26.0667 118.925 26.44C118.038 26.8133 117.055 27 115.975 27Z" fill="#8A77FF"/>
<path d="M130.235 27C128.795 27 127.551 26.6867 126.505 26.06C125.465 25.4333 124.661 24.5567 124.095 23.43C123.535 22.3033 123.255 20.9933 123.255 19.5C123.255 18.0067 123.535 16.6967 124.095 15.57C124.661 14.4433 125.465 13.5667 126.505 12.94C127.551 12.3133 128.795 12 130.235 12C131.675 12 132.915 12.3133 133.955 12.94C135.001 13.5667 135.805 14.4433 136.365 15.57C136.931 16.6967 137.215 18.0067 137.215 19.5C137.215 20.9933 136.931 22.3033 136.365 23.43C135.805 24.5567 135.001 25.4333 133.955 26.06C132.915 26.6867 131.675 27 130.235 27ZM130.235 24.44C131.148 24.4533 131.908 24.2567 132.515 23.85C133.121 23.4433 133.575 22.8667 133.875 22.12C134.181 21.3733 134.335 20.5 134.335 19.5C134.335 18.5 134.181 17.6333 133.875 16.9C133.575 16.1667 133.121 15.5967 132.515 15.19C131.908 14.7833 131.148 14.5733 130.235 14.56C129.321 14.5467 128.561 14.7433 127.955 15.15C127.348 15.5567 126.891 16.1333 126.585 16.88C126.285 17.6267 126.135 18.5 126.135 19.5C126.135 20.5 126.285 21.3667 126.585 22.1C126.891 22.8333 127.348 23.4033 127.955 23.81C128.561 24.2167 129.321 24.4267 130.235 24.44Z" fill="#8A77FF"/>
<path d="M139.211 26.7V12.3H151.091V26.7H148.371V14.84H141.931V26.7H139.211Z" fill="#8A77FF"/>
<path d="M152.898 26.7L157.298 12.3H161.358L165.758 26.7H162.958L159.038 14H159.558L155.698 26.7H152.898ZM155.538 23.7V21.16H163.138V23.7H155.538Z" fill="#8A77FF"/>
<path d="M173.34 27C171.9 27 170.657 26.6867 169.61 26.06C168.57 25.4333 167.767 24.5567 167.2 23.43C166.64 22.3033 166.36 20.9933 166.36 19.5C166.36 18.0067 166.64 16.6967 167.2 15.57C167.767 14.4433 168.57 13.5667 169.61 12.94C170.657 12.3133 171.9 12 173.34 12C174.993 12 176.38 12.41 177.5 13.23C178.627 14.05 179.42 15.16 179.88 16.56L177.14 17.32C176.873 16.4467 176.423 15.77 175.79 15.29C175.157 14.8033 174.34 14.56 173.34 14.56C172.427 14.56 171.663 14.7633 171.05 15.17C170.443 15.5767 169.987 16.15 169.68 16.89C169.373 17.63 169.22 18.5 169.22 19.5C169.22 20.5 169.373 21.37 169.68 22.11C169.987 22.85 170.443 23.4233 171.05 23.83C171.663 24.2367 172.427 24.44 173.34 24.44C174.34 24.44 175.157 24.1967 175.79 23.71C176.423 23.2233 176.873 22.5467 177.14 21.68L179.88 22.44C179.42 23.84 178.627 24.95 177.5 25.77C176.38 26.59 174.993 27 173.34 27Z" fill="#8A77FF"/>
<path d="M182.082 26.7V12.3H184.802V18.22H191.242V12.3H193.962V26.7H191.242V20.76H184.802V26.7H182.082Z" fill="#8A77FF"/>
<path d="M202.95 27C201.51 27 200.266 26.6867 199.22 26.06C198.18 25.4333 197.376 24.5567 196.81 23.43C196.25 22.3033 195.97 20.9933 195.97 19.5C195.97 18.0067 196.25 16.6967 196.81 15.57C197.376 14.4433 198.18 13.5667 199.22 12.94C200.266 12.3133 201.51 12 202.95 12C204.39 12 205.63 12.3133 206.67 12.94C207.716 13.5667 208.52 14.4433 209.08 15.57C209.646 16.6967 209.93 18.0067 209.93 19.5C209.93 20.9933 209.646 22.3033 209.08 23.43C208.52 24.5567 207.716 25.4333 206.67 26.06C205.63 26.6867 204.39 27 202.95 27ZM202.95 24.44C203.863 24.4533 204.623 24.2567 205.23 23.85C205.836 23.4433 206.29 22.8667 206.59 22.12C206.896 21.3733 207.05 20.5 207.05 19.5C207.05 18.5 206.896 17.6333 206.59 16.9C206.29 16.1667 205.836 15.5967 205.23 15.19C204.623 14.7833 203.863 14.5733 202.95 14.56C202.036 14.5467 201.276 14.7433 200.67 15.15C200.063 15.5567 199.606 16.1333 199.3 16.88C199 17.6267 198.85 18.5 198.85 19.5C198.85 20.5 199 21.3667 199.3 22.1C199.606 22.8333 200.063 23.4033 200.67 23.81C201.276 24.2167 202.036 24.4267 202.95 24.44Z" fill="#8A77FF"/>
<path d="M218.106 27C216.666 27 215.422 26.6867 214.376 26.06C213.336 25.4333 212.532 24.5567 211.966 23.43C211.406 22.3033 211.126 20.9933 211.126 19.5C211.126 18.0067 211.406 16.6967 211.966 15.57C212.532 14.4433 213.336 13.5667 214.376 12.94C215.422 12.3133 216.666 12 218.106 12C219.759 12 221.146 12.41 222.266 13.23C223.392 14.05 224.186 15.16 224.646 16.56L221.906 17.32C221.639 16.4467 221.189 15.77 220.556 15.29C219.922 14.8033 219.106 14.56 218.106 14.56C217.192 14.56 216.429 14.7633 215.816 15.17C215.209 15.5767 214.752 16.15 214.446 16.89C214.139 17.63 213.986 18.5 213.986 19.5C213.986 20.5 214.139 21.37 214.446 22.11C214.752 22.85 215.209 23.4233 215.816 23.83C216.429 24.2367 217.192 24.44 218.106 24.44C219.106 24.44 219.922 24.1967 220.556 23.71C221.189 23.2233 221.639 22.5467 221.906 21.68L224.646 22.44C224.186 23.84 223.392 24.95 222.266 25.77C221.146 26.59 219.759 27 218.106 27Z" fill="#8A77FF"/>
<path d="M230.188 26.7V14.84H225.648V12.3H237.448V14.84H232.908V26.7H230.188Z" fill="#8A77FF"/>
<path d="M239.035 26.7V12.3H241.755V17.18H245.115C245.248 17.18 245.435 17.1867 245.675 17.2C245.915 17.2067 246.128 17.2267 246.315 17.26C247.168 17.3933 247.868 17.6767 248.415 18.11C248.968 18.5433 249.375 19.09 249.635 19.75C249.901 20.4033 250.035 21.1333 250.035 21.94C250.035 22.7467 249.905 23.48 249.645 24.14C249.385 24.7933 248.978 25.3367 248.425 25.77C247.878 26.2033 247.175 26.4867 246.315 26.62C246.128 26.6467 245.915 26.6667 245.675 26.68C245.441 26.6933 245.255 26.7 245.115 26.7H239.035ZM241.755 24.16H244.995C245.135 24.16 245.288 24.1533 245.455 24.14C245.621 24.1267 245.775 24.1 245.915 24.06C246.281 23.96 246.565 23.7933 246.765 23.56C246.965 23.32 247.101 23.0567 247.175 22.77C247.255 22.4767 247.295 22.2 247.295 21.94C247.295 21.68 247.255 21.4067 247.175 21.12C247.101 20.8267 246.965 20.5633 246.765 20.33C246.565 20.09 246.281 19.92 245.915 19.82C245.775 19.78 245.621 19.7533 245.455 19.74C245.288 19.7267 245.135 19.72 244.995 19.72H241.755V24.16Z" fill="#8A77FF"/>
</svg>
